# xmcd
#
# Track frame offsets: 
#        150
#        20182
#        37789
#        58036
#        77104
#        95358
#        111471
#        135591
#        150688
#        167445
#        189523
#        207139
#        228282
#        250598
#        266804
#
# Disc length: 3777 seconds
#
# Revision: 3
# Processed by: cddbd v1.5.2PL0 Copyright (c) Steve Scherf et al.
# Submitted via: ExactAudioCopy v0.99pb3
#
DISCID=c10ebf0f
DTITLE=Chris Rea - The Platinum Collection
DYEAR=2006
DGENRE=Slow Rock
TTITLE0=The road to hell (Part 2)
TTITLE1=You can go your own way
TTITLE2=Josephine
TTITLE3=Let's dance
TTITLE4=Fool (if you think it's over)
TTITLE5=The things lovers should do
TTITLE6=Wired to the moon
TTITLE7=I can hear your heartbeat
TTITLE8=On the beach
TTITLE9=Ace of hearts
TTITLE10=Julia
TTITLE11=Auberge
TTITLE12=Looking for the summer
TTITLE13=I don't know what it is but I love it
TTITLE14=Love's strange ways
EXTD=
EXTT0=
EXTT1=
EXTT2=
EXTT3=
EXTT4=
EXTT5=
EXTT6=
EXTT7=
EXTT8=
EXTT9=
EXTT10=
EXTT11=
EXTT12=
EXTT13=
EXTT14=
PLAYORDER=
